<?xml version="1.0" encoding="utf-8"?>
<!-- Generator: Adobe Illustrator 24.1.1, SVG Export Plug-In . SVG Version: 6.00 Build 0)  -->
<svg version="1.1" id="Capa_1" xmlns="http://www.w3.org/2000/svg" xmlns:xlink="http://www.w3.org/1999/xlink" x="0px" y="0px"
	 viewBox="0 0 285 85" style="enable-background:new 0 0 285 85;" xml:space="preserve">
<style type="text/css">
	.st0{opacity:0.58;fill:#FFFFFF;}
	.st1{fill:#39B54A;}
	.st2{fill:none;}
	.st3{opacity:0.72;fill:#B3B3B3;}
	.st4{font-family:'Constantia';}
	.st5{font-size:14.9788px;}
</style>
<g>
	<path class="st0" d="M24.42,16.05c2,0,3.85,0.37,5.53,1.1c1.68,0.74,3.14,1.81,4.36,3.22c1.22,1.41,2.17,3.14,2.85,5.19
		s1.02,4.39,1.02,7.02c0,0.66-0.03,1.22-0.08,1.65c-0.05,0.44-0.15,0.78-0.28,1.03c-0.14,0.25-0.32,0.43-0.54,0.53
		c-0.23,0.11-0.52,0.16-0.87,0.16H16.76c0.23,3.75,1.11,6.5,2.64,8.25c1.53,1.75,3.55,2.63,6.08,2.63c1.24,0,2.31-0.17,3.21-0.5
		c0.9-0.33,1.68-0.7,2.36-1.1c0.67-0.4,1.26-0.77,1.77-1.1c0.51-0.33,1-0.5,1.47-0.5c0.31,0,0.58,0.07,0.81,0.21
		c0.23,0.14,0.42,0.34,0.59,0.6l2.23,3.2c-0.85,1.14-1.8,2.09-2.85,2.86c-1.05,0.77-2.15,1.39-3.3,1.85
		c-1.15,0.46-2.31,0.79-3.5,0.98c-1.19,0.19-2.34,0.28-3.46,0.28c-2.21,0-4.27-0.42-6.17-1.26c-1.9-0.84-3.56-2.09-4.96-3.73
		c-1.41-1.65-2.51-3.69-3.32-6.12c-0.81-2.43-1.21-5.25-1.21-8.45c0-2.49,0.35-4.83,1.05-7.02c0.7-2.19,1.71-4.1,3.02-5.73
		c1.31-1.62,2.91-2.91,4.81-3.86C19.91,16.53,22.04,16.05,24.42,16.05z M24.57,22.07c-2.23,0-3.98,0.72-5.24,2.17
		c-1.26,1.45-2.07,3.5-2.42,6.15H31.3c0-1.14-0.14-2.21-0.4-3.22c-0.27-1.01-0.68-1.89-1.24-2.65c-0.56-0.76-1.26-1.36-2.11-1.8
		C26.7,22.29,25.71,22.07,24.57,22.07z"/>
	<path class="st0" d="M44.58,64.5V16.13h4.76c0.5,0,0.93,0.13,1.29,0.39c0.36,0.26,0.59,0.66,0.69,1.21l0.63,3.38
		c1.3-1.68,2.8-3.04,4.49-4.09c1.69-1.04,3.67-1.56,5.94-1.56c1.76,0,3.38,0.41,4.84,1.24c1.46,0.83,2.72,2.03,3.78,3.61
		c1.06,1.58,1.88,3.52,2.46,5.83c0.58,2.31,0.87,4.96,0.87,7.94c0,2.73-0.33,5.25-0.98,7.57c-0.65,2.32-1.58,4.34-2.79,6.04
		c-1.21,1.71-2.67,3.04-4.38,4c-1.71,0.96-3.63,1.44-5.75,1.44c-1.83,0-3.38-0.31-4.65-0.94c-1.27-0.63-2.41-1.5-3.42-2.61V64.5
		H44.58z M59.59,22.62c-1.59,0-2.95,0.39-4.08,1.16s-2.18,1.86-3.15,3.25v16.36c0.87,1.23,1.81,2.09,2.84,2.58
		c1.02,0.49,2.12,0.73,3.3,0.73c1.16,0,2.21-0.25,3.15-0.75c0.94-0.5,1.74-1.26,2.39-2.28c0.65-1.02,1.15-2.31,1.5-3.86
		c0.35-1.55,0.53-3.38,0.53-5.5c0-2.13-0.15-3.94-0.45-5.42c-0.3-1.48-0.73-2.68-1.29-3.61c-0.56-0.92-1.23-1.6-2.03-2.03
		C61.51,22.83,60.6,22.62,59.59,22.62z"/>
	<path class="st0" d="M88.78,5.73c0,0.76-0.13,1.47-0.4,2.13c-0.27,0.66-0.63,1.24-1.07,1.74c-0.44,0.5-0.97,0.9-1.57,1.19
		c-0.6,0.3-1.24,0.44-1.92,0.44c-0.66,0-1.29-0.15-1.88-0.44c-0.59-0.3-1.1-0.69-1.54-1.19c-0.43-0.5-0.78-1.08-1.04-1.74
		c-0.26-0.66-0.39-1.38-0.39-2.13c0-0.78,0.13-1.52,0.39-2.21c0.26-0.69,0.6-1.28,1.04-1.78c0.43-0.5,0.95-0.9,1.54-1.19
		c0.59-0.3,1.21-0.44,1.88-0.44c0.68,0,1.32,0.15,1.92,0.44c0.6,0.3,1.12,0.69,1.57,1.19c0.44,0.5,0.8,1.09,1.07,1.78
		C88.64,4.21,88.78,4.94,88.78,5.73z M87.82,16.13v36.59h-7.78V16.13H87.82z"/>
	<path class="st0" d="M118.63,24.08c-0.23,0.33-0.45,0.59-0.67,0.78c-0.22,0.19-0.53,0.28-0.95,0.28c-0.39,0-0.78-0.14-1.15-0.41
		c-0.37-0.27-0.82-0.58-1.33-0.92c-0.52-0.34-1.13-0.65-1.84-0.93c-0.71-0.27-1.6-0.41-2.65-0.41c-1.34,0-2.52,0.28-3.53,0.84
		c-1.01,0.56-1.86,1.36-2.53,2.4c-0.67,1.04-1.17,2.31-1.5,3.79c-0.33,1.48-0.5,3.16-0.5,5.03c0,1.94,0.18,3.68,0.54,5.19
		c0.36,1.52,0.88,2.79,1.57,3.82c0.68,1.03,1.51,1.81,2.48,2.35s2.07,0.8,3.29,0.8c1.22,0,2.21-0.17,2.96-0.52
		c0.75-0.34,1.39-0.72,1.91-1.14c0.52-0.41,0.97-0.79,1.35-1.14c0.38-0.34,0.81-0.52,1.29-0.52c0.62,0,1.09,0.27,1.4,0.82l2.2,3.2
		c-0.85,1.14-1.77,2.09-2.76,2.86c-0.99,0.77-2.02,1.39-3.08,1.85c-1.06,0.46-2.17,0.79-3.3,0.98c-1.14,0.19-2.26,0.28-3.38,0.28
		c-1.96,0-3.81-0.42-5.55-1.26c-1.74-0.84-3.25-2.07-4.54-3.68c-1.29-1.61-2.31-3.59-3.07-5.92c-0.75-2.34-1.13-5-1.13-7.99
		c0-2.68,0.34-5.16,1.01-7.45c0.67-2.29,1.66-4.27,2.96-5.94c1.3-1.67,2.91-2.98,4.84-3.93c1.92-0.95,4.13-1.42,6.63-1.42
		c2.38,0,4.46,0.44,6.25,1.32c1.79,0.88,3.39,2.13,4.82,3.77L118.63,24.08z"/>
	<path class="st1" d="M125.86,51.99V0.72c0-0.4,0.48-0.72,1.06-0.72h5.65c0.59,0,1.06,0.32,1.06,0.72V18.4
		c0,0.68,1.27,0.99,1.89,0.45c0.77-0.67,1.59-1.25,2.46-1.74c1.62-0.91,3.51-1.37,5.67-1.37c1.76,0,3.38,0.41,4.84,1.22
		c1.46,0.82,2.72,2,3.78,3.57c1.06,1.56,1.88,3.49,2.46,5.78c0.58,2.29,0.87,4.93,0.87,7.91c0,2.72-0.33,5.24-0.98,7.56
		c-0.65,2.32-1.58,4.33-2.79,6.03c-1.21,1.7-2.67,3.03-4.38,3.99c-1.71,0.96-3.63,1.44-5.75,1.44c-0.99,0-1.89-0.11-2.71-0.34
		c-0.82-0.22-1.57-0.54-2.24-0.94s-1.3-0.89-1.87-1.47c-0.01-0.01-0.01-0.01-0.02-0.02c-0.57-0.57-1.86-0.36-1.95,0.32l-0.03,0.21
		c-0.13,0.62-0.34,1.05-0.65,1.31c-0.3,0.26-0.72,0.39-1.24,0.39h-4.07C126.34,52.72,125.86,52.39,125.86,51.99z M139.12,22.81
		c-0.83,0.17-1.6,0.48-2.22,0.9c-1.12,0.75-2.17,1.8-3.14,3.17c-0.07,0.1-0.11,0.22-0.11,0.33c0,1.63,0,14.37,0,16.01
		c0,0.12,0.04,0.23,0.12,0.34c0.84,1.15,1.74,1.95,2.72,2.42c1.02,0.49,2.13,0.73,3.33,0.73c1.16,0,2.2-0.25,3.13-0.75
		c0.93-0.5,1.72-1.26,2.37-2.28c0.65-1.02,1.15-2.31,1.5-3.86c0.35-1.55,0.53-3.38,0.53-5.5c0-2.13-0.15-3.94-0.45-5.42
		c-0.3-1.48-0.73-2.68-1.29-3.61c-0.56-0.92-1.24-1.6-2.03-2.03C142.35,22.6,140.86,22.45,139.12,22.81z"/>
	<path class="st1" d="M168.23,16.13v23.19c0,2.23,0.44,3.95,1.32,5.17c0.88,1.22,2.19,1.83,3.95,1.83c1.29,0,2.5-0.34,3.63-1.01
		c1.13-0.68,2.2-1.61,3.21-2.79V16.13h7.78v36.59h-4.67c-0.99,0-1.64-0.53-1.95-1.61l-0.53-2.92c-0.66,0.76-1.34,1.46-2.04,2.09
		c-0.7,0.63-1.45,1.17-2.25,1.61c-0.79,0.44-1.65,0.78-2.57,1.03c-0.92,0.25-1.9,0.37-2.96,0.37c-1.73,0-3.27-0.34-4.6-1.02
		c-1.33-0.68-2.45-1.63-3.36-2.87c-0.91-1.24-1.59-2.7-2.06-4.4c-0.46-1.7-0.7-3.57-0.7-5.62V16.13H168.23z"/>
	<path class="st1" d="M196.76,52.72V16.13h4.57c0.8,0,1.35,0.17,1.67,0.5c0.32,0.33,0.52,0.9,0.63,1.71l0.47,4.42
		c1.15-2.26,2.51-4.04,4.06-5.35c1.56-1.31,3.3-1.96,5.23-1.96c1.6,0,2.92,0.42,3.97,1.25l-1.01,6.6c-0.06,0.43-0.2,0.73-0.41,0.91
		c-0.21,0.18-0.49,0.27-0.85,0.27c-0.32,0-0.75-0.08-1.29-0.25c-0.55-0.17-1.27-0.25-2.17-0.25c-1.62,0-3,0.51-4.16,1.52
		c-1.15,1.01-2.13,2.49-2.93,4.44v22.79H196.76z"/>
	<path class="st1" d="M240.66,23.47c-0.21,0.38-0.42,0.65-0.65,0.8c-0.23,0.15-0.52,0.23-0.87,0.23c-0.37,0-0.77-0.12-1.19-0.36
		c-0.42-0.24-0.92-0.5-1.47-0.8c-0.56-0.3-1.19-0.56-1.91-0.8s-1.56-0.36-2.53-0.36c-1.51,0-2.7,0.37-3.57,1.1
		c-0.87,0.73-1.3,1.7-1.3,2.88c0,0.78,0.22,1.44,0.67,1.97c0.44,0.53,1.03,1,1.77,1.4c0.73,0.4,1.57,0.77,2.5,1.08
		c0.93,0.32,1.88,0.67,2.85,1.05c0.97,0.38,1.92,0.81,2.85,1.3c0.93,0.49,1.76,1.1,2.5,1.85c0.73,0.75,1.32,1.64,1.77,2.68
		c0.44,1.04,0.67,2.3,0.67,3.77c0,1.75-0.28,3.37-0.84,4.85c-0.56,1.48-1.38,2.76-2.45,3.84c-1.08,1.08-2.4,1.92-3.98,2.53
		c-1.58,0.6-3.4,0.91-5.44,0.91c-1.1,0-2.17-0.11-3.21-0.34c-1.04-0.23-2.05-0.54-3.01-0.94c-0.96-0.4-1.85-0.88-2.67-1.42
		c-0.82-0.55-1.53-1.14-2.15-1.78l1.77-3.34c0.23-0.4,0.5-0.71,0.81-0.92c0.31-0.21,0.7-0.32,1.18-0.32c0.48,0,0.93,0.15,1.35,0.46
		c0.42,0.31,0.91,0.64,1.47,1c0.56,0.36,1.21,0.69,1.97,1c0.75,0.31,1.71,0.46,2.87,0.46c0.91,0,1.69-0.12,2.34-0.37
		c0.65-0.25,1.19-0.57,1.61-0.98c0.42-0.4,0.73-0.87,0.93-1.4c0.2-0.53,0.29-1.08,0.29-1.65c0-0.85-0.22-1.55-0.67-2.1
		c-0.44-0.55-1.03-1.02-1.77-1.42c-0.73-0.4-1.57-0.77-2.51-1.08c-0.94-0.32-1.9-0.67-2.88-1.05c-0.98-0.38-1.94-0.82-2.88-1.33
		c-0.94-0.51-1.78-1.16-2.51-1.94s-1.32-1.74-1.77-2.88c-0.44-1.14-0.67-2.51-0.67-4.13c0-1.49,0.26-2.92,0.78-4.27
		c0.52-1.35,1.28-2.53,2.28-3.54c1-1.01,2.25-1.81,3.75-2.42s3.23-0.91,5.19-0.91c2.19,0,4.19,0.42,5.98,1.25
		c1.8,0.83,3.3,1.92,4.5,3.27L240.66,23.47z"/>
	<path class="st1" d="M259.1,53.43c-2.79,0-4.95-0.89-6.46-2.68c-1.51-1.79-2.27-4.26-2.27-7.42V22.95h-2.84
		c-0.4,0-0.75-0.16-1.04-0.47c-0.29-0.31-0.44-0.78-0.44-1.41v-3.53l4.99-0.97l1.57-10.09c0.08-0.48,0.27-0.85,0.56-1.12
		c0.29-0.26,0.66-0.4,1.11-0.4h3.87v11.78h8.65v6.2h-8.65v19.78c0,1.14,0.25,2.03,0.75,2.67c0.5,0.64,1.18,0.96,2.02,0.96
		c0.48,0,0.89-0.07,1.21-0.2c0.33-0.13,0.61-0.27,0.85-0.41c0.24-0.14,0.46-0.28,0.64-0.41c0.19-0.13,0.38-0.2,0.57-0.2
		c0.23,0,0.42,0.07,0.57,0.2c0.15,0.13,0.3,0.33,0.47,0.59l2.33,4.27c-1.13,1.07-2.44,1.87-3.91,2.42
		C262.19,53.15,260.67,53.43,259.1,53.43z"/>
</g>
<rect x="-2.55" y="64.5" class="st2" width="290.55" height="20.5"/>
<text transform="matrix(1.1823 0 0 1 3.5981 77.1309)" class="st3 st4 st5">webdesign . development . mareting</text>
</svg>
